<svg xmlns="http://www.w3.org/2000/svg" viewBox="0 0 192 192" width="192" height="192" role="img" aria-label="PROMETHEUS">
  <rect width="192" height="192" rx="42" fill="#09090B"/>
  <g transform="translate(48 24)">
    <path
      d="M48 0c4 10 11 14 11 25 0 6.7-5.2 11.2-11 11.2-5.1 0-8.8-3.6-8.8-8.4 0-3.6 2-6 4.5-8.2-3.6 12.9 7.5 13.5 7.5 6.9 0-5.4-5.3-10.1-3.2-26.5zM30 38c2 6.9 9 11 18 11s16-4.1 18-11c3.6 6.6 5.3 12.9 5.3 18.7 0 12.6-10.3 21.2-23.3 21.2S24.7 69.3 24.7 56.7c0-5.8 1.7-12.1 5.3-18.7z"
      fill="#FF5A1F"
    />
  </g>
</svg>
